<?xml version="1.0" encoding="utf-8"?>
<!-- Generator: Adobe Illustrator 24.1.1, SVG Export Plug-In . SVG Version: 6.00 Build 0)  -->
<svg version="1.1" id="Layer_1" xmlns="http://www.w3.org/2000/svg" xmlns:xlink="http://www.w3.org/1999/xlink" x="0px" y="0px"
	 width="792px" height="612px" viewBox="0 0 792 612" style="enable-background:new 0 0 792 612;" xml:space="preserve">
<style type="text/css">
	.st0{fill:#00B7F1;}
</style>
<path class="st0" d="M219,269.4c18.7,0,26,8.6,26,19.7c0,6.2-2.8,11.6-9.2,15c8.1,3.4,11.4,9.6,11.4,16.8c0,11.9-7.5,20.5-26.8,20.5
	h-27.1v-72H219z M204.8,280v19.6H219c10.9,0,14.6-4.4,14.6-9.7c0-5.8-3.8-9.9-14.6-9.9H204.8z M204.8,309.5v21.3h15.7
	c11.5,0,15.4-4.2,15.4-10.6c0-6.1-3.9-10.6-15.4-10.6H204.8z M257.9,263.8h11v59.3c0,6.8,2,8.8,4.8,8.8c1.9,0,2.8-0.3,3.9-0.9
	l3.2,9.7c-2.4,0.9-4.8,1.5-8.5,1.5c-8.1,0-14.3-4.9-14.3-19.2V263.8z M334.1,339.6c-6.6,1.8-13.5,2.9-23,2.9
	c-13.6,0-23.6-6.8-23.6-24V286h11v33.2c0,10.3,5.3,12.8,13.4,12.8c5.2,0,8.1-0.2,11.2-1V286h11.1V339.6z M394.3,317.9h-37.6v0.4
	c0,9,6,13.7,15.7,13.7c7,0,13.6-1.2,17.5-2.8l3.2,9.9c-5.6,2.1-12.7,3.3-20.7,3.3c-16.6,0-27-8.2-27-27.7v-2.3
	c0-19.4,9.5-27.6,24.5-27.6c14.8,0,24.4,8.2,24.4,27.6V317.9z M356.8,309.5H383v-0.6c0-9.3-5.1-13.6-13.1-13.6
	c-8,0-13.2,4.3-13.2,13.6V309.5z M429.1,313.5v27.9h-11.5v-27.7L390,269.4h13l20.4,33.7l20.3-33.7h13L429.1,313.5z M449.8,312.8
	c0-19.8,10.5-27.9,24.9-27.9c14.3,0,24.9,8.1,24.9,27.9v1.8c0,19.8-10.6,27.9-24.9,27.9c-14.4,0-24.9-8.1-24.9-27.9V312.8z
	 M488.5,312.8c0-13.3-5.1-17.5-13.7-17.5c-8.8,0-13.8,4.2-13.8,17.5v1.8c0,13.3,5.1,17.5,13.8,17.5c8.6,0,13.7-4.2,13.7-17.5V312.8z
	 M510.6,287.8c5.2-1.7,13.6-2.9,22.9-2.9c13.6,0,23.7,6.8,23.7,24v32.5h-11v-33.2c0-10.3-5.3-12.8-13.4-12.8c-5.3,0-7.8,0.2-11.3,1
	v45.1h-11V287.8z M613.9,339.6c-6.4,2.1-15.6,2.9-21,2.9c-15.2,0-25.6-9-25.6-27.7v-2.2c0-19.2,11-27.7,25.9-27.7
	c3.7,0,7.1,0.6,9.7,1.7v-22.7h11V339.6z M578.4,314.8c0,13.5,5.7,17.3,14.8,17.3c4.4,0,6.9-0.3,9.7-1.1v-33.8
	c-1.4-0.8-4.5-1.9-9-1.9c-9.2,0-15.6,3.5-15.6,17.3V314.8z M673.9,317.9h-37.6v0.4c0,9,6,13.7,15.7,13.7c7,0,13.6-1.2,17.5-2.8
	l3.2,9.9c-5.6,2.1-12.7,3.3-20.7,3.3c-16.6,0-27-8.2-27-27.7v-2.3c0-19.4,9.5-27.6,24.5-27.6c14.8,0,24.4,8.2,24.4,27.6V317.9z
	 M636.6,309.5h26.3v-0.6c0-9.3-5.1-13.6-13.1-13.6s-13.2,4.3-13.2,13.6V309.5z M685.3,287.8c4.7-1.7,12.1-2.8,18.6-2.8
	c5.3,0,8.8,0.6,12.5,1.4l-3.3,10.1c-2.3-0.7-4.9-1.1-8.5-1.1c-4.2,0-6.3,0.4-8.3,0.9v45.1h-11V287.8z M119.9,260.7
	c-7.8,0-14,6.3-14,14c0,7.8,6.3,14,14,14c7.8,0,14-6.3,14-14C133.9,267,127.6,260.7,119.9,260.7z M119.9,351.4c7.8,0,14-6.3,14-14
	c0-7.8-6.3-14-14-14c-7.8,0-14,6.3-14,14S112.1,351.4,119.9,351.4z M122.9,306c0,1.4,0.8,2.6,2,3.1l0,0l20.4,9.6c0,0,0,0,0,0
	c1.8,0.9,3.8,1.3,6,1.3c7.8,0,14-6.3,14-14c0-7.8-6.3-14-14-14c-2.1,0-4.2,0.5-6,1.3c0,0,0,0,0,0l-20.4,9.6l0,0
	C123.7,303.4,122.9,304.6,122.9,306z M116.9,306c0-1.4-0.8-2.6-2-3.1l0,0l-20.4-9.6c0,0,0,0,0,0c-1.8-0.9-3.8-1.3-6-1.3
	c-7.8,0-14,6.3-14,14c0,7.8,6.3,14,14,14c2.1,0,4.2-0.5,6-1.3c0,0,0,0,0,0l20.4-9.6l0,0C116.1,308.6,116.9,307.4,116.9,306z"/>
</svg>
